<?xml version="1.0" encoding="utf-8"?>
<!-- Generator: Adobe Illustrator 23.0.3, SVG Export Plug-In . SVG Version: 6.00 Build 0)  -->
<svg version="1.1" id="Warstwa_1" xmlns="http://www.w3.org/2000/svg" xmlns:xlink="http://www.w3.org/1999/xlink" x="0px" y="0px"
	 viewBox="0 0 228.1 250" enable-background="new 0 0 228.1 250" xml:space="preserve">
<path id="Path_22" fill="#FBAD3F" d="M130.04,242.7c-1.64,0.27-3.32,0.11-4.87-0.48c-1.11-0.33-1.99-1.16-2.39-2.24
	c0.14-0.13,0.3-0.23,0.47-0.32c4.96-1.22,7.99-6.23,6.77-11.19c0-0.01-0.01-0.02-0.01-0.04c-0.53-2.91-2.26-5.46-4.77-7.03
	c-3.51-2.41-8.3-1.52-10.71,1.98c-0.06,0.08-0.11,0.16-0.16,0.24c-3.28,4.97-3.09,11.46,0.47,16.23c2.11,2.82,5.11,4.85,8.52,5.75
	c0.47,0.11,0.91,0.32,1.29,0.62c-2.53,0.61-4.99,1.1-7.42,1.54c-0.84,0.17-1.68,0.35-2.52,0.5c-0.73,0.13-1.47,0.21-2.21,0.25
	c-3.14,0.21-6.24,0.73-9.39,0.89c-6.26,0.33-12.54,0.06-18.74-0.83c-5.64-0.82-11.18-2.18-16.55-4.09
	c-5.01-1.78-9.84-4.03-14.44-6.7c-4.38-2.55-8.55-5.45-12.46-8.67c-3.75-3.08-7.28-6.42-10.58-9.99c-3.13-3.39-6.07-6.96-8.8-10.68
	c-2.54-3.46-4.92-7.04-7.13-10.73c-1.99-3.3-3.84-6.68-5.57-10.13c-1.46-2.92-2.84-5.88-4.12-8.89c-0.98-2.31-1.91-4.65-2.77-7.01
	c-0.71-1.94-1.36-3.9-1.94-5.88c9.7,0.87,19.47,0.24,28.97-1.88c2.17-0.52,4.32-1.14,6.44-1.87c7.98-2.77,15.33-7.09,21.63-12.72
	c1.48-1.31,2.89-2.68,4.24-4.13c1.29-1.38,2.85-2.59,4.25-3.87l29.79-9.08l0.22,0.35c-0.25,0.51-0.5,1.01-0.76,1.51
	c-3.47,6.34-6.29,13.01-8.41,19.92c-4.09,13.02-1.56,27.22,6.77,38.04c2.78,3.83,6.35,7.01,10.46,9.35
	c8.29,5.02,18.63,5.2,27.08,0.47c0.39-0.2,0.76-0.42,1.14-0.62c0.14-0.05,0.29-0.09,0.44-0.11c0.19,0.37,0.43,0.77,0.61,1.19
	c2.24,5.05,4.49,10.1,6.72,15.15c1.25,2.84,2.07,5.86,2.41,8.95C142.96,234.19,137.7,241.31,130.04,242.7z M93.66,54.33
	c0.15,6.54-0.11,13.08-0.78,19.58c1.49-2.13,3.12-4.16,4.88-6.06c2.39,1.33,4.45,3.18,6.01,5.42c1.75,2.39,3.36,4.88,4.8,7.47
	c0.92,1.71,1.77,3.42,2.58,5.19c0.22,0.49,0.46,0.96,0.76,1.59c-0.82-5.66-1.93-11.06-2.4-16.53c-0.45-5.24-0.57-16.81-0.57-16.81
	l41.25,15.25V24.29c-0.76,0.13-35.83,13.13-40.64,14.97c1.66-4.53,3.25-8.82,4.8-13.13c1.58-4.36,3.13-8.74,4.67-13.11
	c1.51-4.28,3.2-8.53,4.67-13.02H79.11c0,0,13.43,38,13.35,37.97c-7.59-2.78-38.28-13.35-38.28-13.62v44.37
	C54.17,68.73,91.97,54.95,93.66,54.33z M227.85,174.83c-5.5,1.3-10.83,3.2-16.27,4.76c-5.47,1.57-10.9,3.31-16.35,4.97l-0.2-0.31
	c2.7-5.88,4.95-11.95,6.74-18.17c0,0-21.59-0.03-27.49-1.71l31.04-9.73c0.57-0.18,1.27-0.25,0.96-1.45
	c-11.33,3.4-22.52,6.96-33.75,10.42c0.14,0.43,0.21,0.61,0.29,0.86l-28.38,8.82c0.77,4.75,0.27,9.62-1.43,14.13
	c-1.84,4.41-4.65,8.35-8.22,11.52l1.6,3.73l57.58-17.41c0.03,0,0.08,0.03,0.12,0.05l0.21,0.76c4.96-1.5,9.81-2.97,14.65-4.43
	c2.52-0.76,5.04-1.5,7.55-2.26c3.52-1.06,7.05-2.12,10.56-3.23c0.39-0.12,0.7-0.53,1.04-0.81L227.85,174.83z M136.74,203.48
	c2,4.65,3.92,9.04,5.74,13.48c0.77,1.88,1.41,3.81,1.92,5.78c1.86,5.85,0.67,12.24-3.18,17.03c-0.06,0.07,0,0.24,0,0.43
	c7.77-3.62,15.05-8.23,21.65-13.7c6.6-5.43,12.55-11.59,17.73-18.38c5.17-6.74,9.64-13.99,13.35-21.63l-0.29-0.24L136.74,203.48z
	 M95.17,186.46c4.73,12.41,18.63,18.65,31.04,13.92c0.88-0.33,1.73-0.72,2.57-1.15c0.76-0.38,1.48-0.86,2.26-1.32l-13.84-32.22
	c-0.23,0.07-0.46,0.17-0.67,0.29c-2.2,1.62-3.91,3.82-4.92,6.36c-3,7.08-1.17,16.32,8.55,18.71c0.37,0.12,0.72,0.29,1.05,0.49
	c0.31,1.02-0.11,1.43-0.96,1.67c-6.6-1-12.18-5.43-14.66-11.63c-3.46-8.66-1.41-18.54,5.21-25.11c0.29-0.29,0.55-0.57,0.82-0.86
	l-0.13-0.16l-15.91,4.98c-0.43,1.4-0.86,2.64-1.18,3.9C92.25,171.6,92.52,179.37,95.17,186.46L95.17,186.46z M124.62,123.18
	l-11.87,3.75l-4.63,10.42l6.95,16.04l26.18-8.12c-6.33-6.54-11.74-13.9-16.08-21.9c0.55-0.19,0.96-0.34,1.37-0.47
	c3.38-1.05,6.76-2.08,10.14-3.14c3.14-0.98,6.28-2,9.44-2.97c3.79-1.18,7.59-2.33,11.37-3.54c0.39-0.12,0.68-0.54,1.26-1.01
	c-0.6-0.14-0.8-0.26-0.95-0.21c-10.92,3.34-21.85,6.69-32.84,10.06L124.62,123.18z M66.35,139.86l0.2,0.25l29.96-9.25l3.17-5.85
	c-3.13-6.42-5.63-13.13-7.46-20.04l-7.45,2.31C80.46,119.07,74.23,130.08,66.35,139.86L66.35,139.86z M108.79,87.45
	c-0.42-1.51-1.32-2.85-2.57-3.8c-1.53-1.36-3.85-1.31-5.31,0.11c-1.47,1.28-2.58,2.93-3.19,4.78c-1.31,3.87-1.88,7.95-1.68,12.02
	c0,0.7,0.09,1.4,0.15,2.23l13.58-4.12C110.21,94.91,109.88,91.09,108.79,87.45L108.79,87.45z M138.14,175.22l-12.01,3.74l7.45,17.18
	C139.19,190.73,140.98,182.48,138.14,175.22L138.14,175.22z M109.66,99.69c-4.37,1.36-8.97,2.71-13.39,4.09
	c0.52,6.21,2.27,12.25,5.14,17.78C104.93,118.01,109.96,104.17,109.66,99.69L109.66,99.69z M119.96,164.71l5.83,13.47l12.12-3.82
	C134.2,165.06,124.78,162.38,119.96,164.71L119.96,164.71z M96.39,159.25l15.9-5l-6.06-14.09c-4,5.92-7.38,12.24-10.1,18.85
	L96.39,159.25z M124.59,122.19c-3.55-6.65-6.48-13.6-8.76-20.78c-0.11,4.23,0.02,8.32-0.41,12.34c-0.42,4.02-1.41,7.95-2.17,12.06
	C117,124.66,120.74,123.58,124.59,122.19L124.59,122.19z M85.43,106.06l6.6-2.01c-1.14-5.19-1.64-10.49-1.48-15.8L85.43,106.06z
	 M141.94,146.03l-17.47,5.35c11.67,2.28,17.05,10.35,19.91,21.01l26.87-8.34c-0.11-0.29-0.13-0.41-0.19-0.43
	c-4.23-1.38-8.35-3.09-12.32-5.12c-3.34-1.79-6.52-3.86-9.51-6.19c-2.47-1.89-4.73-4.05-7.08-6.09c4.7-1.47,9.4-2.94,14.1-4.41
	c4.2-1.31,8.4-2.61,12.61-3.91c1.74-0.54,3.47-1.08,5.2-1.64c0.51-0.17,1.18-0.3,0.72-1.4c-11.13,3.39-22.2,6.89-33.39,10.37
	L141.94,146.03z M138.1,91.11c2.1-0.64,4.19-1.32,6.28-2.01c0.51-0.17,1.17-0.31,0.72-1.39l-30.17,9.17
	c0.06,0.51,0.09,0.79,0.14,1.24c4.88-1.5,9.57-2.94,14.27-4.37C132.24,92.86,135.18,92.01,138.1,91.11L138.1,91.11z"/>
</svg>
