<?xml version="1.0" encoding="utf-8"?>
<!-- Generator: Adobe Illustrator 19.0.0, SVG Export Plug-In . SVG Version: 6.00 Build 0)  -->
<svg version="1.1" id="Layer_1" xmlns="http://www.w3.org/2000/svg" xmlns:xlink="http://www.w3.org/1999/xlink" x="0px" y="0px"
	 viewBox="0 0 250 250" style="enable-background:new 0 0 250 250;" xml:space="preserve">
<g id="XMLID_43_">
	<path id="XMLID_112_" d="M69.3,205.2l78.9-64.1l32.5-96.4l-78.9,64.1L69.3,205.2z M114,117.4c3.9-5.6,11.6-7,17.2-3.1
		c5.6,3.9,7,11.6,3.1,17.2c-3.9,5.6-11.6,7-17.2,3.1C111.5,130.7,110.1,123,114,117.4z"/>
	<path id="XMLID_116_" d="M125,0.4C56.3,0.4,0.4,56.3,0.4,125S56.3,249.6,125,249.6c68.7,0,124.6-55.9,124.6-124.6
		S193.7,0.4,125,0.4z M226.1,133.8l9.7,4.1c-1.1,9.2-3.3,18.1-6.4,26.5l-11.6-4.8l-2.7,6.5l11.6,4.8c-5.1,11.2-12,21.5-20.4,30.4
		l-8.8-8.8l-5,5l8.8,8.8c-8.9,8.3-19.1,15.3-30.4,20.4l-4.8-11.5l-6.5,2.7l4.8,11.6c-8.4,3.2-17.3,5.4-26.5,6.4l-4.1-9.7l-8.8-20.5
		l-8.8,20.5l-4.1,9.7c-9.2-1.1-18.1-3.3-26.5-6.4l4.8-11.6l-6.5-2.7l-4.8,11.5c-11.2-5.1-21.5-12-30.4-20.4l8.8-8.8l-5-5l-8.8,8.8
		c-8.3-8.9-15.3-19.1-20.4-30.4l11.6-4.8l-2.7-6.5l-11.6,4.8c-3.2-8.4-5.4-17.3-6.4-26.5l9.7-4.1l20.5-8.8l-20.5-8.8l-9.7-4.1
		c1.1-9.2,3.3-18.1,6.4-26.5l11.6,4.8l2.7-6.5l-11.6-4.8c5.1-11.2,12-21.5,20.4-30.4l8.8,8.8l5-5l-8.8-8.8
		c8.9-8.3,19.1-15.3,30.4-20.4l4.8,11.5l6.5-2.7l-4.8-11.6c8.4-3.2,17.3-5.4,26.5-6.4l4.1,9.7l8.8,20.5l8.8-20.5l4.1-9.7
		c9.2,1.1,18.1,3.3,26.5,6.4l-4.8,11.6l6.5,2.7l4.8-11.5c11.2,5.1,21.5,12,30.4,20.4l-8.8,8.8l5,5l8.8-8.8
		c8.3,8.9,15.3,19.1,20.4,30.4l-11.6,4.8l2.7,6.5l11.6-4.8c3.2,8.4,5.4,17.3,6.4,26.5l-9.7,4.1l-20.5,8.8L226.1,133.8z"/>
</g>
</svg>
