<?xml version="1.0" encoding="utf-8"?>
<!-- Generator: Adobe Illustrator 19.0.0, SVG Export Plug-In . SVG Version: 6.00 Build 0)  -->
<svg version="1.1" id="Layer_1" xmlns="http://www.w3.org/2000/svg" xmlns:xlink="http://www.w3.org/1999/xlink" x="0px" y="0px"
	 viewBox="-285 411.7 24 21.2" style="enable-background:new -285 411.7 24 21.2;" xml:space="preserve">
<style type="text/css">
	.st0{fill:#FFAE3D;}
</style>
<path class="st0" d="M-268.6,418.2c1.8,0,3.3-1.5,3.3-3.3c0-1.8-1.5-3.3-3.3-3.3c-1.8,0-3.3,1.5-3.3,3.3
	C-271.9,416.8-270.5,418.2-268.6,418.2z M-277.4,418.2c1.8,0,3.3-1.5,3.3-3.3c0-1.8-1.5-3.3-3.3-3.3s-3.3,1.5-3.3,3.3
	C-280.6,416.8-279.2,418.2-277.4,418.2z M-277.4,420.4c-2.5,0-7.6,1.3-7.6,3.8v8.6h15.3v-8.6C-269.7,421.7-274.8,420.4-277.4,420.4z
	 M-268.6,420.4c-0.3,0-0.7,0-1.1,0.1c1.3,0.9,2.1,2.1,2.1,3.8v8.6h6.5v-8.6C-261,421.7-266.1,420.4-268.6,420.4z"/>
</svg>
