<?xml version="1.0" encoding="utf-8"?>
<!-- Generator: Adobe Illustrator 23.0.3, SVG Export Plug-In . SVG Version: 6.00 Build 0)  -->
<svg version="1.1" id="Warstwa_1" xmlns="http://www.w3.org/2000/svg" xmlns:xlink="http://www.w3.org/1999/xlink" x="0px" y="0px"
	 viewBox="0 0 228.1 230.57" enable-background="new 0 0 228.1 230.57" xml:space="preserve">
<path id="Path_35" fill="#FBAD3F" d="M92.04,114.38L72.7,95.04c-4.36-3.96-6.21-9.98-4.83-15.7c2.14-8.11,10.46-12.95,18.57-10.81
	c2.04,0.54,3.95,1.5,5.6,2.81c3.79-2.99,8.76-4.04,13.44-2.86c5.25,1.42,9.36,5.52,10.78,10.78c1.38,5.76-0.49,11.81-4.87,15.78
	L92.04,114.38z M82.47,74.64c-0.7,0-1.4,0.09-2.08,0.28c-2.98,0.83-5.31,3.16-6.14,6.14c-0.75,3.44,0.45,7.01,3.12,9.31l14.67,14.67
	l14.67-14.67c2.7-2.31,3.92-5.92,3.16-9.39c-0.82-2.96-3.14-5.28-6.1-6.1c-3.48-0.75-7.08,0.46-9.39,3.16l-2.34,2.34l-2.33-2.34
	C87.84,75.97,85.24,74.75,82.47,74.64L82.47,74.64z M123.11,114.38l-19.34-19.34c-7.69-7.69-6.25-17.15-0.86-22.54
	c5.45-5.49,14.16-5.99,20.21-1.16c3.79-2.99,8.76-4.04,13.44-2.85c5.25,1.42,9.36,5.52,10.77,10.78c1.38,5.76-0.49,11.81-4.87,15.78
	L123.11,114.38z M113.54,74.63c-2.24,0.02-4.39,0.93-5.95,2.54c-3.07,3.07-3.99,8.34,0.86,13.19l14.67,14.67l14.67-14.67
	c2.7-2.31,3.92-5.92,3.16-9.39c-0.82-2.96-3.14-5.28-6.1-6.1c-3.47-0.75-7.08,0.46-9.39,3.16l-2.33,2.33l-2.34-2.33
	C118.92,75.97,116.31,74.74,113.54,74.63L113.54,74.63z M141.75,183.39h-68.3v-14.94l2.09-0.83c0.91-0.36,1.84-0.7,2.78-1.04
	c4.57-1.67,8.9-3.25,10.06-6.81c0.58-2.34,0.87-4.75,0.88-7.16c0-0.42-0.01-0.83-0.04-1.24H78.55c-16.09,0-28.22-11.44-28.22-26.61
	v-3.3h114.51v17.26h-3.3c-5.16,0.01-9.35,4.19-9.35,9.35v3.3h-26.22c-0.03,0.4-0.04,0.82-0.04,1.24c0.01,2.42,0.3,4.82,0.88,7.17
	c1.17,3.56,5.48,5.14,10.06,6.81c0.94,0.34,1.87,0.68,2.78,1.04l2.09,0.83L141.75,183.39z M80.05,176.78h55.09v-3.8l-0.53-0.2
	c-5.58-2.04-11.91-4.35-14.07-10.96c-0.8-3.01-1.21-6.1-1.21-9.22c0-1.77,0.19-3.53,0.58-5.26l0.58-2.58h25.45
	c1.32-6.17,6.14-10.99,12.31-12.31v-4.39H57.22c1.6,9.71,10.24,16.7,21.34,16.7h16.15l0.58,2.58c0.39,1.73,0.58,3.49,0.58,5.26
	c-0.01,3.11-0.41,6.2-1.21,9.21c-2.17,6.62-8.5,8.93-14.08,10.97l-0.53,0.2L80.05,176.78z M43.99,26.2l0.13,0.21
	c-1.18,0.75-1.42,0.74-0.17,2.7l9.4,14.85c1.16,1.82,1.2,1.65,2.35,0.92l0.15,0.24l-7.58,4.8l-0.15-0.24
	c1.12-0.71,1.17-0.59,0.01-2.41l-9.4-14.85c-1.05-1.66-1.12-1.88-2.27-1.15l-0.14-0.21L43.99,26.2z M64.73,36.41
	c0,0-1.46-0.54-13.05-4.95c1.37-7.44,3.38-11.98,5.01-13.01l-0.14-0.21l-8.84,5.6l0.14,0.21c1.69-1.07,4.5,2.25,3.9,5.56l-1.5,7.71
	c0,0,2.15,0.85,5.1,2.07c5.4,2.29,5.87,2.33,8.7,0.53l4.77-3.02l-0.15-0.24C67.94,37.04,67.29,37.38,64.73,36.41L64.73,36.41z
	 M68.7,29.42l-3.64-11.53c-0.58-1.85-0.72-2.7-2.05-2.28l-0.09-0.27l8.65-2.73l0.09,0.27c-1.3,0.4-1.09,0.87-0.4,3.05l3.7,11.73
	c1.13,3.57,3.48,4.49,6.35,3.58c2.6-0.66,4.17-3.31,3.51-5.9c-0.06-0.24-0.14-0.48-0.24-0.71l-2.48-7.86
	c-0.78-2.48-2.84-6.29-5.72-5.38l-0.09-0.27l7.92-2.5l0.12,0.26c-3.39,1.07-2.74,5.32-1.96,7.8l2.48,7.86
	c1.26,3.99-0.49,7.73-5.81,9.41C74.93,35.27,70.26,34.35,68.7,29.42L68.7,29.42z M99.6,29.03l0.31-0.02
	c6.1-0.46,9.69-2.23,9.91-7.87l0.25-0.02l0.08,7.4l-18.63,1.39l10.44-22.88l-1.49,0.11c-5.47,0.4-8.94,2.99-9.16,6.82l-0.25,0.02
	L91,7.57l18.19-1.36L99.6,29.03z M101.95,0.58l5.24,1.2l-9.35,4.29l-2.59,0.2L101.95,0.58z M129.52,31.14l-8.81-18.85l-1.72,9.74
	c-0.44,2.5-1.04,6.77,3.52,7.58l-0.05,0.28l-9.93-1.75l0.05-0.28c4.31,0.76,5.69-3.41,6.13-5.87l1.79-10.12l-1.1-2.35
	c-1.44-2.8-2.66-2.98-3.46-3.19l0.04-0.25l9.96,1.76l7.91,17.21l1.47-8.34c0.51-2.9,0.2-6.92-3.27-7.53l0.04-0.25l9.46,1.67
	l-0.04,0.25c-3.87-0.68-5.4,3.01-5.91,5.91l-2.65,14.99L129.52,31.14z M156.78,16.87l-0.1,0.23c-1.24-0.49-1.93-0.73-2.96,1.86
	l-5.81,14.55c-1.12,2.8-0.55,3.33,0.69,3.83l-0.11,0.27l-9.71-3.88l0.11-0.27c1.24,0.49,2.02,0.5,3.14-2.3l5.81-14.55
	c1.04-2.59,0.4-2.88-0.87-3.38l0.1-0.24L156.78,16.87z M171.79,25.21l0.14,0.09c-3.26,19.81-3.37,20.98-3.37,20.98
	c-0.42,2.75,0.47,3.36,0.97,3.76l-0.14,0.21l-9.33-6.03l0.14-0.2c2.13,1.38,2.55-2.77,2.55-2.77l0.34-2.39l-5.22-3.38
	c-1.33,0.88-3.26,4.92-0.06,6.99l-0.14,0.2l-7.67-4.96l0.14-0.21c0.83,0.47,2.41,1.18,7.49-2.18L171.79,25.21z M164.34,30.82
	l-6.25,4.45l5.03,3.27L164.34,30.82z M208.09,62.18l4.47,6.32l-0.23,0.16c-0.9-1.27-1.19-0.98-2.78,0.14l-13.68,9.66
	c-1.76,1.24-2.02,1.74-1.13,3.01l-0.23,0.17l-5.58-7.9l0.23-0.16c0.86,1.21,1.35,1.03,3.11-0.22l15.13-10.68l-22.51,5.84l-0.17-0.23
	l9.66-19.41l-8.5,6c-3.34,2.36-5.96,5.64-3.83,8.65l-0.23,0.17l-5.71-8.08l0.23-0.16c1.96,2.77,5.98,1.6,9.38-0.81l8.88-6.27
	c1.08-2.27,0.9-3.39,0.44-4.16l0.23-0.17l5.22,7.38L193,66.1L208.09,62.18z M218.61,84.78l-0.23,0.09c-0.49-1.24-0.79-1.9-3.38-0.87
	l-14.57,5.79c-2.8,1.11-2.8,1.9-2.3,3.14l-0.27,0.11l-3.87-9.73l0.27-0.11c0.49,1.24,1.03,1.81,3.83,0.7l14.57-5.79
	c2.59-1.03,2.37-1.69,1.86-2.96l0.23-0.1L218.61,84.78z M208.94,110.25l-6.74,1.39l-3.39-16.48l0.28-0.06
	c0.27,1.34,0.79,1.17,2.91,0.73l5.75-1.18l-3.18-3.82l0.37-0.08l3.18,3.82l10.79-2.23c1.89-0.39,1.73-0.55,1.46-1.89l0.28-0.06
	l1.91,9.29l-0.28,0.06c-0.27-1.33-0.26-1.6-2.5-1.14l-7.08,1.46l3.4,4.09l-0.37,0.08l-3.4-4.09l-11.69,2.41
	c0.55,2.67,2.48,8.59,8.26,7.4L208.94,110.25z M213.22,136.76c-6.39-0.29-11.33-5.71-11.04-12.1c0.28-6.19,5.38-11.05,11.58-11.05
	c6.39,0.07,11.52,5.31,11.45,11.7c-0.07,6.39-5.31,11.52-11.7,11.45C213.41,136.76,213.31,136.76,213.22,136.76z M213.4,129.05
	c8.69,0.2,11.33,0.13,11.41-3.61c0.09-3.77-2.54-3.99-11.23-4.19c-8.72-0.2-11.01-0.1-11.09,3.68c-0.09,3.73,2.19,3.91,10.91,4.11
	L213.4,129.05z M199.91,153.92c0,0-2.08-2.31-0.7-7.63c1.55-5.95,3.72-7.85,3.72-7.85l5.89,1.54l-0.07,0.28
	c-2.22-0.05-8.01,1.29-9.26,6.11c-0.86,3.29,2.98,5.26,6.68,2.3l4.21-3.95c3.87-3.64,7.89-3.75,10.5-0.28c0,0,1.89,2.3,0.58,7.33
	c-0.44,2.56-1.59,4.95-3.31,6.91l-5.16-1.34l0.07-0.28c2.37-0.04,6.84-0.45,8.12-5.36c0.86-3.31-2.57-5.23-6.22-1.92l-4.37,3.91
	c-3.73,3.34-7.94,3.39-10.68,0.21L199.91,153.92z M226.64,155.18l-2.83,4.57l-1.04-10.24l0.66-2.52L226.64,155.18z M194.84,177.24
	l-5.87-2.6c0.13-2.55,0.81-5.04,2.01-7.3c3.06-6.07,9.6-9.51,16-6.28s7.51,10.55,4.45,16.6c-0.98,2.37-2.59,4.44-4.65,5.97
	l-5.58-3.17l0.11-0.23c6.29,2.11,8.82-0.64,9.86-2.7c1.59-3.14,0.05-5.59-7.71-9.51s-10.69-3.61-12.23-0.55
	c-0.97,1.93-1.44,5.74,3.71,9.55L194.84,177.24z M197.89,197.37l-0.2-0.15c0.81-1.06,1.23-1.66-0.99-3.35l-12.46-9.51
	c-2.4-1.82-3.07-1.42-3.87-0.36l-0.23-0.17l6.34-8.32l0.23,0.17c-0.81,1.06-1.01,1.82,1.37,3.64l12.46,9.51
	c2.23,1.69,2.67,1.16,3.5,0.07l0.2,0.15L197.89,197.37z M181.58,201.38l-4.5-4.84c-40.73,37.79-104.39,35.41-142.18-5.33
	c-35.81-38.59-35.8-98.26,0-136.85l-4.84-4.5c-40.26,43.42-37.7,111.26,5.72,151.53c19.35,17.94,44.63,28.12,71.02,28.58
	c0.64,0.01,1.27,0.02,1.91,0.02C135.75,230.04,161.79,219.81,181.58,201.38L181.58,201.38z"/>
</svg>
