<?xml version="1.0" encoding="utf-8"?>
<!-- Generator: Adobe Illustrator 23.0.3, SVG Export Plug-In . SVG Version: 6.00 Build 0)  -->
<svg version="1.1" id="Warstwa_1" xmlns="http://www.w3.org/2000/svg" xmlns:xlink="http://www.w3.org/1999/xlink" x="0px" y="0px"
	 viewBox="0 0 250 250" enable-background="new 0 0 250 250" xml:space="preserve">
<path id="Path_23" fill="#FBAD3F" d="M71.74,249.89H0.41c-0.03-0.21-0.07-0.39-0.09-0.57c-0.01-0.18,0-0.43,0-0.64v-70
	c0.25-0.04,0.42-0.09,0.6-0.1s0.43,0,0.64,0h70.07c0.05,0.17,0.09,0.35,0.11,0.53C71.74,202.67,71.74,226.26,71.74,249.89z"/>
<path id="Path_24" fill="#FBAD3F" d="M178.9,249.93c-0.19-0.92-0.28-61.01-0.13-70.55c0-0.23,0.04-0.47,0.06-0.74
	c0.26-0.03,0.46-0.06,0.67-0.06c8.14-0.15,69.75-0.07,70.59,0.09c0.02,0.02,0.05,0.04,0.07,0.06c0.02,0.02,0.03,0.05,0.03,0.07
	c0.01,0.18,0.04,0.37,0.04,0.57c0,23.41,0,46.81,0,70.22c-0.01,0.1-0.04,0.19-0.07,0.28c-0.17,0.03-0.34,0.07-0.52,0.08
	c-0.18,0.01-0.43,0-0.64,0H178.9V249.93z"/>
<path id="Path_26" fill="#FBAD3F" d="M178.82,89.4c0.14-0.05,0.28-0.08,0.43-0.09c23.52,0,47.04,0,70.54,0
	c0.1,0.01,0.19,0.04,0.28,0.09c0.16,0.82,0.23,60.02,0.09,70.55c0,0.23-0.03,0.47-0.05,0.72c-0.14,0.05-0.28,0.08-0.43,0.09
	c-23.52,0-47.04,0-70.54,0c-0.1-0.01-0.19-0.04-0.28-0.09c-0.16-0.82-0.23-59.92-0.1-70.55C178.78,89.89,178.79,89.65,178.82,89.4z
	 M197.19,103.16c0,0.4-0.03,0.77-0.03,1.14c0,12.71,0,25.41,0,38.11c0,0.35,0,0.69,0,1.04c0.03,0.19,0.06,0.38,0.12,0.57h38.95
	c0.19,0,0.38,0,0.57,0c0.19,0,0.35-0.06,0.52-0.09c0.03-0.12,0.05-0.24,0.06-0.36c0-2.24,0-4.48,0-6.72
	c-0.02-0.17-0.06-0.34-0.12-0.51h-1.06l-28.03-0.02c-0.27,0-0.53,0-0.8,0c-0.19-0.02-0.38-0.06-0.57-0.1c0-0.4-0.03-0.77-0.03-1.14
	c0-7.5,0-15,0-22.5c0-2.8-0.01-5.6-0.03-8.41c0-0.34-0.05-0.67-0.08-0.98c-0.73-0.15-6.7-0.22-8.87-0.11
	C197.59,103.09,197.39,103.12,197.19,103.16L197.19,103.16z"/>
<path id="Path_27" fill="#FBAD3F" d="M0.32,0.17C0.6,0.13,0.8,0.09,1,0.08c4.18-0.15,69.82-0.06,70.65,0.11
	c0.03,0.16,0.07,0.33,0.08,0.51c0.01,0.18,0,0.43,0,0.64c0,22.95,0,45.91,0,68.86c0,0.39-0.03,0.79-0.05,1.2
	c-0.15,0.04-0.3,0.06-0.45,0.08H0.43c-0.05-0.19-0.09-0.38-0.11-0.57c-0.02-0.24,0-0.48,0-0.72v-70L0.32,0.17z M47.08,13.04
	c-0.24,0.17-0.5,0.35-0.75,0.55l-10.62,7.99c-3.52,2.66-7.04,5.3-10.55,7.94c-0.2,0.21-0.47,0.35-0.76,0.38
	c0-0.35-0.03-0.66-0.03-0.97c0-4.96-0.01-9.93-0.02-14.89c0-0.31-0.03-0.62-0.04-0.89c-0.12-0.06-0.17-0.1-0.22-0.1
	c-2.8-0.01-5.6-0.02-8.41-0.03c-0.21,0-0.42,0.02-0.64,0.04c-0.02,0-0.04,0.03-0.06,0.05l-0.15,0.12v1.12c0,11.59,0,23.17,0,34.76
	c0,1.28,0,2.56,0.01,3.84c0,0.28-0.07,0.59,0.15,0.84c3.1,0.16,6.22,0.14,9.32-0.05c0-0.26,0.04-0.55,0.04-0.84
	c0-2.16,0-4.32,0.01-6.48c0-3.12,0-6.25,0-9.37c-0.05-0.35,0.01-0.71,0.16-1.02c2.06,1.5,4.07,2.98,6.08,4.46l6.06,4.46l6.13,4.5
	l6.03,4.43h14.47c0.11,0,0.21-0.01,0.32-0.03c0.03,0,0.05-0.01,0.07-0.03c0.01-0.02,0-0.05,0.03-0.15L33.78,32.31
	c0.28-0.21,0.48-0.38,0.69-0.53l5.67-4.04c6.58-4.69,13.17-9.39,19.75-14.09c0.27-0.14,0.51-0.35,0.68-0.6L47.08,13.04z"/>
<path id="Path_28" fill="#FBAD3F" d="M160.9,160.68c-0.15,0.04-0.3,0.07-0.45,0.09c-0.27,0.02-0.53,0-0.8,0H90.87
	c-0.4,0-0.79-0.03-1.22-0.04c-0.03-0.23-0.07-0.41-0.09-0.59c-0.01-0.18,0-0.43,0-0.64V89.43c0.2-0.05,0.39-0.09,0.59-0.12
	c0.24-0.02,0.48,0,0.72,0h68.86c0.39,0,0.79,0.03,1.16,0.05C161.04,90.1,161.04,160,160.9,160.68z M133.44,119.18h-2.74l-14.97-0.01
	c-0.31,0-0.62-0.03-0.94-0.05c-0.03-0.15-0.06-0.31-0.07-0.46c0-2.67,0-5.34,0-8.01c0.02-0.19,0.06-0.38,0.12-0.57h1.08h23.7
	c2.16,0,4.32,0,6.48,0c0.28,0,0.57-0.03,0.83-0.04c0.16-2.3,0.15-4.61-0.01-6.91c-0.34-0.02-0.71-0.05-1.08-0.05H106.6
	c-0.28,0-0.59,0-0.88,0c-0.17,0.02-0.34,0.06-0.51,0.1c-0.19,0.96-0.28,34.65-0.11,40.15c0,0.21,0.05,0.41,0.07,0.59
	c0.06,0.04,0.12,0.07,0.19,0.1c0.08,0.02,0.16,0.03,0.24,0.03h41.07c0.16,0,0.32-0.02,0.48-0.04c0.03,0,0.05-0.01,0.07-0.03
	c0.02-0.02,0.04-0.03,0.06-0.05c0.17-2.51,0.15-5.03-0.04-7.53c-0.28,0-0.6-0.03-0.92-0.03H138h-22.18c-0.34,0-0.68-0.02-1.08-0.04
	c-0.09-1.71-0.05-3.36-0.04-5.01c0.01-1.65-0.07-3.29,0.05-5c0.41-0.02,0.75-0.05,1.09-0.05l16.25-0.03c0.28,0,0.59,0,0.88-0.02
	c0.17-0.03,0.34-0.07,0.5-0.12C133.62,123.78,133.61,121.48,133.44,119.18L133.44,119.18z"/>
<path id="Path_29" fill="#FBAD3F" d="M160.97,0.19v71.17c-0.19,0.03-0.37,0.08-0.54,0.09c-0.18,0.01-0.43,0-0.64,0H90.74
	c-0.37,0-0.73-0.02-1.14-0.03c-0.02-0.33-0.05-0.59-0.05-0.85c-0.11-14.74-0.03-69.74,0.1-70.41c0.17-0.04,0.35-0.07,0.52-0.09
	C93.04-0.05,160.17,0.04,160.97,0.19z M111.04,45.01c8.67-0.02,17.26-0.03,25.88,0l4.89,8.85c0.2,0.04,0.4,0.06,0.61,0.08
	c3.18-0.01,6.35-0.03,9.53-0.05c0.15-0.02,0.29-0.05,0.43-0.11c-0.33-0.88-22.8-40.1-23.35-40.77h-9.15
	c-7.62,13.48-15.28,26.94-22.84,40.44c-0.04,0.11-0.07,0.22-0.09,0.34c0.16,0.04,0.32,0.07,0.48,0.09c2.21,0.13,8.07,0.1,8.88-0.05
	L111.04,45.01z"/>
<path id="Path_30" fill="#FBAD3F" d="M0.38,160.72V89.43c0.17-0.05,0.34-0.09,0.52-0.12c0.26-0.02,0.53,0,0.8,0
	c22.9,0,45.8,0,68.7,0c0.44-0.07,0.88-0.02,1.29,0.14v71.21c-0.17,0.05-0.35,0.09-0.52,0.12c-0.24,0.02-0.48,0-0.72,0H1.58
	C1.2,160.79,0.81,160.74,0.38,160.72z M36.27,127.73c-0.23-0.26-0.41-0.45-0.57-0.66c-2.38-3.05-4.76-6.1-7.14-9.16
	c-3.69-4.74-7.38-9.48-11.07-14.21c-0.18-0.23-0.38-0.44-0.53-0.61c-2.55-0.14-5.11-0.11-7.66,0.1c0,0.32-0.03,0.65-0.03,1
	c0,12.57,0,25.15,0,37.72c0,0.51,0,1.02,0,1.52c0.02,0.2,0.06,0.39,0.11,0.59h3.79c0.61,0,1.23,0.02,1.84,0
	c0.66,0.06,1.32,0.02,1.97-0.13v-1.03c0-8.09,0-16.18,0-24.27c0-1.04-0.09-2.08-0.14-3.13c0-0.12,0-0.23,0-0.35
	c0.14,0.09,0.26,0.22,0.34,0.38c0.6,0.97,1.14,1.99,1.83,2.91c5.05,6.76,10.11,13.51,15.19,20.24c0.13,0.17,0.28,0.32,0.4,0.46h1.89
	c0.21-0.27,0.41-0.52,0.61-0.77c4.55-6.06,9.11-12.11,13.68-18.17c1.14-1.48,2.14-3.06,2.99-4.73c0.07-0.13,0.16-0.25,0.23-0.38
	c0.07,0.27,0.09,0.55,0.06,0.82c-0.07,1.14-0.21,2.28-0.21,3.43c0,6.91,0,13.83,0,20.74c0,0.99,0,1.97,0.01,2.96
	c0,0.31,0.06,0.62,0.09,0.9c2.92,0.15,5.84,0.13,8.76-0.03c0-0.34,0.04-0.71,0.04-1.08c0-11.45,0-22.9,0-34.35
	c0-1.49,0-2.99-0.01-4.48c0-0.28,0.08-0.59-0.15-0.83c-2.52-0.14-5.05-0.13-7.57,0.02c-1.52,1.99-3.08,4.02-4.63,6.06
	c-1.55,2.04-3.13,4.12-4.7,6.18c-1.57,2.06-3.1,4.08-4.66,6.11S37.93,125.65,36.27,127.73z"/>
<path id="Path_31" fill="#FBAD3F" d="M178.91,71.47c-0.19-0.92-0.28-60.21-0.13-70.57c0-0.23,0.03-0.46,0.06-0.75
	c0.31-0.02,0.57-0.05,0.83-0.05c12.19-0.14,69.68-0.06,70.45,0.1c0.02,0.02,0.03,0.04,0.05,0.06c0.02,0.02,0.03,0.04,0.03,0.07
	c0.01,23.38,0.02,46.76,0.03,70.14c0,0.24,0,0.48-0.02,0.72c-0.01,0.06-0.04,0.11-0.07,0.17c-0.28,0.2-0.6,0.12-0.91,0.12
	c-4.22,0-8.43,0-12.65,0L178.91,71.47L178.91,71.47z M192.83,53.8c0.11,0.03,0.23,0.05,0.35,0.06c2.78,0,5.55,0,8.33,0
	c0.17-0.03,0.34-0.07,0.5-0.14c0-0.36,0-0.71,0-1.05c0-4.38,0.01-8.76,0.02-13.13c0-0.34,0.03-0.67,0.06-1.05h9.03l16.36,15.33
	c1.53,0.16,12.6,0.1,13.37-0.08c-0.22-0.2-0.4-0.39-0.59-0.55c-3.3-2.71-6.6-5.42-9.9-8.14c-2.41-1.98-4.83-3.96-7.25-5.94
	c-0.26-0.15-0.46-0.38-0.57-0.66h0.85c1.6,0,3.2,0.01,4.81,0c1.58,0.01,3.15-0.26,4.63-0.79c1.77-0.62,3.13-2.07,3.63-3.89
	c0.29-0.97,0.43-1.98,0.43-3c0-3.36,0-6.73,0-10.09c-0.01-0.67-0.07-1.33-0.18-1.99c-0.27-2.44-2.02-4.46-4.4-5.07
	c-0.18-0.05-0.36-0.11-0.54-0.15c-1.43-0.33-2.9-0.49-4.37-0.46h-32.03c-0.69,0-1.39,0-2.08,0.01c-0.17,0.02-0.34,0.05-0.51,0.09
	C192.64,14.38,192.68,53.01,192.83,53.8L192.83,53.8z"/>
<path id="Path_32" fill="#FBAD3F" d="M124.19,21.05l8.64,16.31c-0.27,0.15-0.58,0.2-0.88,0.14c-4.03,0-8.06,0-12.09,0h-4.45
	c-0.16-0.33,0.04-0.52,0.15-0.71c1.26-2.32,2.52-4.64,3.79-6.96c1.45-2.66,2.89-5.3,4.34-7.94
	C123.81,21.68,123.95,21.46,124.19,21.05z"/>
<path id="Path_33" fill="#FBAD3F" d="M202.17,31.48c-0.18-0.68-0.21-10.47-0.04-11.36c0.29-0.09,0.6-0.12,0.91-0.08h15.93
	c1.58,0,3.15,0,4.72,0c0.61,0.01,1.23,0.07,1.83,0.18c1.17,0.1,2.1,1.04,2.17,2.21c0.05,0.26,0.07,0.53,0.07,0.8
	c0,1.68,0,3.36,0,5.05c-0.01,0.4-0.06,0.8-0.14,1.19c-0.13,0.88-0.8,1.58-1.67,1.75c-0.83,0.18-1.68,0.28-2.53,0.3
	c-1.52,0.05-3.04,0.02-4.55,0.02h-15.69C202.82,31.53,202.48,31.49,202.17,31.48z"/>
<path fill="#FBAD3F" d="M160.9,178.57c-0.38-0.01-0.77-0.05-1.16-0.05H90.87c-0.24,0-0.48-0.02-0.72,0c-0.2,0.03-0.4,0.07-0.59,0.12
	v70.08c0,0.2-0.01,0.39,0,0.57c0.01,0.18,0.05,0.36,0.09,0.57h71.25C161.04,249.12,161.04,179.33,160.9,178.57z M155.03,219.54
	h-25.5v25.5h-8.74v-25.5h-25.5v-8.74h25.5v-25.5h8.74v25.5h25.5V219.54z"/>
</svg>
