<?xml version="1.0" encoding="utf-8"?>
<!-- Generator: Adobe Illustrator 19.0.0, SVG Export Plug-In . SVG Version: 6.00 Build 0)  -->
<svg version="1.1" id="Layer_1" xmlns="http://www.w3.org/2000/svg" xmlns:xlink="http://www.w3.org/1999/xlink" x="0px" y="0px"
	 viewBox="30 -42 76.4 100" style="enable-background:new 30 -42 76.4 100;" xml:space="preserve">
<style type="text/css">
	.st0{fill:#FBAD3F;}
</style>
<g id="XMLID_5_">
	<g id="XMLID_52_">
		<g id="XMLID_112_">
			<path id="XMLID_125_" class="st0" d="M39.6,56.6c-0.3-0.5-0.7-1.1-1.2-1.7C38,54.2,37.5,53.6,37,53c-0.5-0.6-1.1-1.2-1.6-1.8
				c-0.6-0.6-1.1-1.1-1.7-1.5v6.9H30V40.2h3.7v6.1c0.9-1,1.9-2,2.9-3.1c1-1.1,1.9-2.1,2.7-3h4.4c-1.1,1.3-2.2,2.6-3.4,3.8
				c-1.1,1.2-2.3,2.5-3.6,3.7c1.3,1.1,2.6,2.4,3.8,3.9c1.2,1.5,2.4,3.1,3.5,5H39.6z"/>
			<path id="XMLID_122_" class="st0" d="M49.9,43.8c1,0,1.9,0.1,2.6,0.4c0.7,0.2,1.2,0.6,1.7,1c0.4,0.4,0.7,1,0.9,1.6
				c0.2,0.6,0.3,1.3,0.3,2.1v7.3c-0.5,0.1-1.2,0.2-2.1,0.4c-0.9,0.1-2,0.2-3.3,0.2c-0.8,0-1.5-0.1-2.2-0.2c-0.7-0.1-1.2-0.4-1.7-0.7
				c-0.5-0.3-0.8-0.7-1.1-1.3c-0.3-0.5-0.4-1.2-0.4-1.9c0-0.7,0.1-1.3,0.4-1.8c0.3-0.5,0.7-0.9,1.2-1.2c0.5-0.3,1-0.5,1.7-0.6
				c0.6-0.1,1.3-0.2,2-0.2c0.5,0,0.9,0,1.2,0.1c0.4,0,0.6,0.1,0.9,0.2v-0.3c0-0.6-0.2-1.1-0.5-1.4c-0.4-0.4-1-0.5-1.9-0.5
				c-0.6,0-1.2,0-1.8,0.1c-0.6,0.1-1.1,0.2-1.5,0.4l-0.4-2.8c0.2-0.1,0.5-0.1,0.8-0.2c0.3-0.1,0.6-0.1,1-0.2
				c0.4-0.1,0.7-0.1,1.1-0.1C49.1,43.9,49.5,43.8,49.9,43.8z M50.2,54.1c0.3,0,0.7,0,1,0c0.3,0,0.6,0,0.8-0.1v-2.7
				c-0.1,0-0.4-0.1-0.6-0.1c-0.3,0-0.5,0-0.8,0c-0.3,0-0.6,0-0.9,0.1c-0.3,0-0.5,0.1-0.8,0.2c-0.2,0.1-0.4,0.3-0.5,0.4
				c-0.1,0.2-0.2,0.4-0.2,0.7c0,0.6,0.2,0.9,0.6,1.1C49,54,49.5,54.1,50.2,54.1z"/>
			<path id="XMLID_120_" class="st0" d="M65.6,47.3c-0.3-0.1-0.7-0.2-1.1-0.2c-0.4-0.1-0.9-0.1-1.4-0.1c-0.2,0-0.5,0-0.8,0.1
				c-0.3,0-0.5,0.1-0.7,0.1v9.5h-3.5V44.8c0.6-0.2,1.4-0.4,2.2-0.6c0.9-0.2,1.8-0.3,2.9-0.3c0.2,0,0.4,0,0.7,0
				c0.3,0,0.5,0.1,0.8,0.1c0.3,0,0.5,0.1,0.8,0.1c0.3,0.1,0.5,0.1,0.7,0.2L65.6,47.3z"/>
			<path id="XMLID_118_" class="st0" d="M74.6,50c0-1.1-0.1-1.9-0.4-2.4c-0.3-0.5-0.8-0.7-1.5-0.7c-0.2,0-0.4,0-0.7,0
				c-0.2,0-0.5,0.1-0.7,0.1v9.6h-3.5v-12c0.3-0.1,0.6-0.2,1.1-0.2c0.4-0.1,0.8-0.2,1.3-0.2c0.4-0.1,0.9-0.1,1.4-0.2
				c0.5,0,0.9-0.1,1.4-0.1c0.9,0,1.6,0.1,2.2,0.3c0.6,0.2,1,0.5,1.4,0.8c0.5-0.4,1.1-0.6,1.7-0.8c0.7-0.2,1.3-0.3,1.8-0.3
				c1,0,1.8,0.1,2.4,0.4c0.6,0.3,1.1,0.7,1.5,1.2c0.4,0.5,0.6,1.1,0.8,1.8c0.1,0.7,0.2,1.5,0.2,2.3v7h-3.5V50c0-1.1-0.1-1.9-0.4-2.4
				c-0.3-0.5-0.8-0.7-1.5-0.7c-0.2,0-0.5,0-0.8,0.1c-0.3,0.1-0.6,0.2-0.8,0.4c0.1,0.4,0.2,0.7,0.2,1.1c0,0.4,0,0.8,0,1.3v6.8h-3.5
				V50z"/>
			<path id="XMLID_115_" class="st0" d="M87.1,50.5c0-1.1,0.2-2.1,0.5-2.9c0.3-0.8,0.8-1.5,1.3-2.1c0.6-0.6,1.2-1,1.9-1.3
				c0.7-0.3,1.5-0.4,2.2-0.4c1.8,0,3.2,0.5,4.2,1.6c1,1.1,1.5,2.7,1.5,4.8c0,0.2,0,0.4,0,0.7c0,0.2,0,0.5,0,0.6h-8
				c0.1,0.7,0.4,1.3,1,1.7c0.6,0.4,1.4,0.6,2.4,0.6c0.6,0,1.3-0.1,1.9-0.2c0.6-0.1,1.1-0.3,1.5-0.4l0.5,2.9
				c-0.2,0.1-0.4,0.2-0.8,0.3c-0.3,0.1-0.7,0.2-1.1,0.2c-0.4,0.1-0.8,0.1-1.2,0.2c-0.4,0-0.9,0.1-1.3,0.1c-1.1,0-2.1-0.2-2.9-0.5
				c-0.8-0.3-1.5-0.8-2.1-1.4c-0.5-0.6-0.9-1.3-1.2-2C87.2,52.2,87.1,51.4,87.1,50.5z M95.3,49.1c0-0.3-0.1-0.6-0.2-0.9
				c-0.1-0.3-0.2-0.5-0.4-0.8c-0.2-0.2-0.4-0.4-0.7-0.5c-0.3-0.1-0.6-0.2-1-0.2c-0.4,0-0.7,0.1-1,0.2c-0.3,0.1-0.5,0.3-0.7,0.5
				c-0.2,0.2-0.3,0.5-0.4,0.8c-0.1,0.3-0.2,0.6-0.2,0.9H95.3z"/>
			<path id="XMLID_113_" class="st0" d="M105.9,56.8c-1,0-1.9-0.1-2.5-0.3c-0.6-0.2-1.1-0.5-1.5-0.9c-0.4-0.4-0.6-0.8-0.8-1.3
				c-0.1-0.5-0.2-1.1-0.2-1.8V38.8l3.5-0.6v13.5c0,0.3,0,0.6,0.1,0.8c0,0.3,0.1,0.5,0.3,0.6c0.1,0.2,0.3,0.3,0.6,0.4
				c0.3,0.1,0.6,0.2,1,0.2L105.9,56.8z"/>
		</g>
	</g>
	<path id="XMLID_47_" class="st0" d="M66.4,22.9l0.1,2.7l-2.7-0.1l2,1.8l-2,1.8l2.7-0.1l-0.1,2.7l1.8-2l1.8,2l-0.1-2.7l2.7,0.1
		l-2-1.8l2-1.8l-2.7,0.1l0.1-2.7l-1.8,2L66.4,22.9z M94.7-8.8c0,0-0.1,2.9-2.5,4.2c0,0-0.1-0.1-0.1-0.1c3-12-9-22.9-9-22.9
		s1.6,5.7-2.9,10.2c2.1-8.9-4.8-19.1-14.7-25.3c0,0,4.2,6.5-3.4,14.1c-4.6,4.6-5.9,9.2-5.9,13.1c-3.9-3.2-3.8-7.7-3.8-7.7
		c-4.2,6.4-8.8,11.9-7.2,19.7c-2.8-2.7-3.4-5.1-3.4-5.1C35.5,0.3,34.6,14,38,20.1c1.5,3.7,6.1,8.5,11.5,12.6
		c4.2-2.9,16-12.5,15.1-27.4H53.8l0.5-6.6l10.3-0.5v-9.6h7.3v9.6l10.3,0.5l0.5,6.6H71.9c-1,14.6,10.4,24.1,14.8,27.2
		c5.3-4,9.9-8.5,11.6-12.1C101.9,14.5,101.1,0.4,94.7-8.8z M54.4,13.5l-2,1.8l2,1.8L51.7,17l0.1,2.7l-1.8-2l-1.8,2l0.1-2.7l-2.7,0.1
		l2-1.8l-2-1.8l2.7,0.1l-0.1-2.7l1.8,2l1.8-2l-0.1,2.7L54.4,13.5z M92.5,17.1L89.8,17l0.1,2.7l-1.8-2l-1.8,2l0.1-2.7l-2.7,0.1l2-1.8
		l-2-1.8l2.7,0.1l-0.1-2.7l1.8,2l1.8-2l-0.1,2.7l2.7-0.1l-2,1.8L92.5,17.1z"/>
</g>
</svg>
