<?xml version="1.0" encoding="utf-8"?>
<!-- Generator: Adobe Illustrator 23.0.3, SVG Export Plug-In . SVG Version: 6.00 Build 0)  -->
<svg version="1.1" id="Warstwa_1" xmlns="http://www.w3.org/2000/svg" xmlns:xlink="http://www.w3.org/1999/xlink" x="0px" y="0px"
	 viewBox="0 0 202.02 250" enable-background="new 0 0 202.02 250" xml:space="preserve">
<path id="Path_34" fill="#FBAD3F" d="M198.18,213.02c-18.91-25.71-66.16-95.75-71.84-129.03h34.21V36.12h-34.77V1.17H77.16v34.94
	H42.39v47.87H76.6C70.91,117.27,23.68,187.3,4.77,213.02l-3.84,5.22l5.5,3.42c28.53,17.73,61.46,27.12,95.05,27.11
	c33.59,0.01,66.51-9.38,95.05-27.11l5.5-3.42L198.18,213.02z M133.53,198.6l-10.85,17.95l-18.97-21.61l-13.95,15.64l-19.87-15.64
	l-30.78,1.18l34.33-24.11l18.35,4.35l9.69-16.46l19.61,24.22l11.25-10.97l26.75,26.05L133.53,198.6z M132.19,154.79l-11.23,9.13
	l-19.48-27.1l-16.07,22.84l-11.6-10.11l-33.6,33.02c3.64-5.58,7.44-11.54,11.24-17.68c24.99-40.54,37.67-69.77,37.67-86.88v-5.99
	H54.35V48.1h34.77V13.15h24.68V48.1h34.77v23.92h-34.75v6c0,17.1,12.67,46.33,37.67,86.86c6.19,10.04,12.41,19.57,17.94,27.81
	L132.19,154.79z"/>
</svg>
