<?xml version="1.0" encoding="utf-8"?>
<!-- Generator: Adobe Illustrator 19.0.0, SVG Export Plug-In . SVG Version: 6.00 Build 0)  -->
<svg version="1.1" id="Layer_1" xmlns="http://www.w3.org/2000/svg" xmlns:xlink="http://www.w3.org/1999/xlink" x="0px" y="0px"
	 viewBox="0 0 32 32" style="enable-background:new 0 0 32 32;" xml:space="preserve">
<style type="text/css">
	.st0{fill:#FBAD3F;}
</style>
<path id="XMLID_47_" class="st0" d="M15.3,27.4l0.1,1.1l-1.1-0.1l0.8,0.7l-0.8,0.7l1.1-0.1l-0.1,1.1l0.7-0.8l0.7,0.8l-0.1-1.1
	l1.1,0.1L17,29.1l0.8-0.7l-1.1,0.1l0.1-1.1L16,28.2L15.3,27.4z M26.8,14.5c0,0-0.1,1.2-1,1.7c0,0,0,0,0-0.1c1.2-4.9-3.6-9.3-3.6-9.3
	s0.6,2.3-1.2,4.1c0.8-3.6-2-7.8-6-10.3c0,0,1.7,2.6-1.4,5.7c-1.9,1.9-2.4,3.7-2.4,5.3c-1.6-1.3-1.5-3.1-1.5-3.1
	c-1.7,2.6-3.6,4.8-2.9,8c-1.2-1.1-1.4-2.1-1.4-2.1c-2.5,3.7-2.9,9.3-1.5,11.8c0.6,1.5,2.5,3.4,4.7,5.1c1.7-1.2,6.5-5.1,6.1-11.1
	h-4.3l0.2-2.7l4.2-0.2v-3.9h3v3.9l4.2,0.2l0.2,2.7h-4.3c-0.4,5.9,4.2,9.8,6,11.1c2.2-1.6,4-3.5,4.7-4.9C29.7,24,29.3,18.2,26.8,14.5
	z M10.4,23.5l-0.8,0.7l0.8,0.7L9.3,25l0.1,1.1l-0.7-0.8l-0.7,0.8L7.9,25L6.8,25l0.8-0.7l-0.8-0.7l1.1,0.1l-0.1-1.1l0.7,0.8l0.7-0.8
	l-0.1,1.1L10.4,23.5z M25.9,25L24.7,25l0.1,1.1l-0.7-0.8l-0.7,0.8l0.1-1.1L22.3,25l0.8-0.7l-0.8-0.7l1.1,0.1l-0.1-1.1l0.7,0.8
	l0.7-0.8l-0.1,1.1l1.1-0.1L25,24.3L25.9,25z"/>
</svg>
