<?xml version="1.0" encoding="utf-8"?>
<!-- Generator: Adobe Illustrator 23.1.0, SVG Export Plug-In . SVG Version: 6.00 Build 0)  -->
<svg version="1.1" id="Warstwa_1" xmlns="http://www.w3.org/2000/svg" xmlns:xlink="http://www.w3.org/1999/xlink" x="0px" y="0px"
	 viewBox="0 0 364.26 949.28" enable-background="new 0 0 364.26 949.28" xml:space="preserve">
<g>
	<path d="M359.56,948.99c-7.97-10.06-15.85-20.44-23.41-30.85l4.85-3.53c7.51,10.34,15.33,20.65,23.26,30.65L359.56,948.99z
		 M314.06,886.34c-5.35-8.05-10.64-16.29-15.74-24.5l-5.04-8.13l5.1-3.16l5.04,8.13c5.06,8.16,10.32,16.35,15.63,24.35
		L314.06,886.34z M273.21,820.65c-8.32-14.3-13.74-25.04-17.57-34.82l5.59-2.19c3.72,9.49,9.01,19.97,17.17,33.99L273.21,820.65z
		 M246.39,747.68c-0.66-5.8-1-11.69-1-17.51c0-7.09,0.48-14.19,1.46-21.71l5.95,0.78c-0.95,7.26-1.41,14.11-1.41,20.93
		c0,5.6,0.32,11.26,0.96,16.83L246.39,747.68z M260.1,671.54l-5.89-1.15c1.46-7.5,2.12-13.02,2.12-17.91
		c0-6.86-1.29-12.54-4.06-17.88l5.33-2.76c3.19,6.14,4.74,12.89,4.74,20.64C262.33,657.77,261.64,663.64,260.1,671.54z
		 M224.61,612.6c-12.35-4.23-26.37-5.35-37.2-5.86l0.28-5.99c11.23,0.52,25.8,1.7,38.87,6.17L224.61,612.6z M148.66,605.39
		c-12.17-1.03-25.15-3.52-29.04-14.1c-0.68-1.84-1.02-3.8-1.02-5.84c0-1.09,0.1-2.22,0.29-3.36l5.92,1.01
		c-0.14,0.81-0.21,1.6-0.21,2.35c0,1.34,0.21,2.58,0.65,3.77c2.14,5.83,9.52,8.97,23.91,10.19L148.66,605.39z M145.7,553.43
		l-4.23-4.25c6.26-6.24,13.42-12.75,20.34-19.06c2.69-2.45,5.39-4.91,8.05-7.36l4.07,4.41c-2.67,2.46-5.38,4.92-8.08,7.38
		C158.97,540.82,151.86,547.29,145.7,553.43z M201.07,498.98l-4.78-3.63c5.84-7.67,8.68-13.96,8.68-19.23
		c0-1.59-0.27-3.12-0.81-4.54c-0.9-2.37-2.4-4.13-4.72-5.54l3.12-5.13c3.46,2.11,5.82,4.9,7.21,8.53c0.8,2.1,1.21,4.35,1.21,6.68
		C210.97,482.75,207.73,490.23,201.07,498.98z M162.8,456.71c-7.1-2.36-13.21-5.51-18.69-9.62c-5.16-3.88-9.65-8.58-13.34-13.96
		l4.95-3.39c3.32,4.85,7.36,9.07,12,12.56c4.95,3.72,10.51,6.58,16.98,8.73L162.8,456.71z M117.51,395.8
		c-1.29-8.84-1.92-18.85-1.92-30.63c0-2.66,0.03-5.48,0.1-8.39l6,0.13c-0.06,2.87-0.1,5.64-0.1,8.26c0,11.48,0.61,21.21,1.86,29.76
		L117.51,395.8z M123.62,318.49l-5.99-0.38l0.06-0.99c0.79-12.26,1.6-24.93,2-37.46l6,0.19c-0.4,12.62-1.22,25.34-2.01,37.65
		L123.62,318.49z M119.19,241.39c-0.91-12.58-2.7-25.29-5.34-37.78l5.87-1.24c2.7,12.76,4.53,25.74,5.46,38.59L119.19,241.39z
		 M103.56,166.84c-4.08-11.72-9.01-23.61-14.64-35.32l5.41-2.6c5.73,11.91,10.74,24.01,14.89,35.94L103.56,166.84z M70.63,97.89
		C64.2,87.3,57.05,76.58,49.36,66.01l4.85-3.53c7.79,10.7,15.04,21.56,21.55,32.3L70.63,97.89z M25.66,35.84
		C17.65,26.34,9.02,16.73,0,7.27l4.34-4.14c9.1,9.55,17.82,19.25,25.91,28.84L25.66,35.84z"/>
</g>
</svg>
