<?xml version="1.0" encoding="utf-8"?>
<!-- Generator: Adobe Illustrator 16.0.0, SVG Export Plug-In . SVG Version: 6.00 Build 0)  -->
<!DOCTYPE svg PUBLIC "-//W3C//DTD SVG 1.1//EN" "http://www.w3.org/Graphics/SVG/1.1/DTD/svg11.dtd">
<svg version="1.1" id="Warstwa_1" xmlns="http://www.w3.org/2000/svg" xmlns:xlink="http://www.w3.org/1999/xlink" x="0px" y="0px"
	 width="283.46px" height="425.201px" viewBox="0 0 283.46 425.201" enable-background="new 0 0 283.46 425.201"
	 xml:space="preserve">
<g>
	<g>
		<path fill="#FFAE3D" d="M84.257,2.809L85.841,0c3.169,1.789,6.273,3.728,9.232,5.758l-1.826,2.658
			C90.368,6.434,87.345,4.549,84.257,2.809z"/>
	</g>
	<g>
		<path fill="#FFAE3D" d="M181.765,393.895c-0.215-0.215-0.424-0.446-0.617-0.677c-1.762-2.089-2.633-4.909-2.52-8.152l3.223,0.112
			c-0.059,1.697,0.199,4.114,1.762,5.967c1.762,2.089,4.393,2.9,7.218,3.786c1.3,0.408,2.647,0.827,3.926,1.386l-1.283,2.954
			c-1.128-0.489-2.331-0.865-3.609-1.268C187.012,397.112,184.058,396.188,181.765,393.895z M185.293,365.286
			c0.962-4.78,0.516-9.323-1.284-13.142c-0.811-1.719-1.863-3.287-3.222-4.796l2.396-2.154c1.573,1.746,2.793,3.572,3.743,5.575
			c2.1,4.447,2.632,9.688,1.53,15.15L185.293,365.286z M153.634,328.331l-0.086-0.086c-1.961-1.977-3.625-4.274-4.957-6.837
			l2.862-1.482c1.176,2.272,2.653,4.308,4.388,6.053l0.07,0.07c2.932,2.933,6.632,5.258,9.865,7.148l-1.627,2.781
			C160.74,333.992,156.824,331.521,153.634,328.331z M145.814,300.173c0.107-0.505,0.231-1.015,0.365-1.515
			c1.611-5.972,4.883-11.277,8.045-16.412l0.721-1.165l2.744,1.687l-0.72,1.17c-3.185,5.161-6.187,10.038-7.675,15.559
			c-0.118,0.446-0.23,0.902-0.328,1.354L145.814,300.173z M102.345,215.011c-1.542-1.858-2.932-3.803-4.125-5.784
			c-1.901-3.147-4.248-8.088-4.613-13.738l3.217-0.209c0.328,5,2.444,9.441,4.157,12.282c1.112,1.843,2.406,3.657,3.846,5.393
			L102.345,215.011z M118.553,228.621l1.681-2.75c0.623,0.381,1.251,0.752,1.879,1.117c5.252,3.023,11.063,5.177,16.681,7.261
			l-1.106,3.029c-5.757-2.132-11.697-4.334-17.186-7.492C119.853,229.399,119.203,229.018,118.553,228.621z M162.672,262.788
			c0.462-4.006-0.112-7.728-1.653-10.768c-1.129-2.224-2.857-4.28-5.146-6.106l2.014-2.519c2.647,2.116,4.673,4.532,6.005,7.164
			c1.826,3.604,2.514,7.959,1.981,12.594L162.672,262.788z M105.272,179.098l-1.944-2.572c2.481-1.875,5.161-3.485,7.75-5.038
			c0.725-0.435,1.439-0.864,2.143-1.294c2.723-1.67,5.172-3.309,7.481-5.006l1.906,2.595c-2.379,1.75-4.903,3.437-7.707,5.155
			c-0.709,0.436-1.434,0.87-2.165,1.311C110.224,175.763,107.619,177.326,105.272,179.098z M135.159,151.129
			c3.985-5.382,7.079-11.396,9.194-17.879l3.062,0.999c-2.224,6.81-5.473,13.131-9.667,18.797L135.159,151.129z M147.806,113.341
			c0.253-6.472-0.241-13.297-1.465-20.295l3.174-0.554c1.262,7.224,1.771,14.28,1.509,20.978L147.806,113.341z M141.099,73.271
			c-2.229-6.327-4.984-12.648-8.19-18.786l2.857-1.488c3.271,6.273,6.09,12.739,8.367,19.205L141.099,73.271z M122.205,36.998
			c-1.563-2.186-3.185-4.323-4.823-6.348c-2.443-3.019-5.081-5.951-7.846-8.711l-0.537-0.532l2.266-2.293l0.548,0.548
			c2.841,2.841,5.559,5.854,8.072,8.964c1.681,2.072,3.34,4.264,4.941,6.503L122.205,36.998z"/>
	</g>
	<g>
		<path fill="#FFAE3D" d="M190.417,423.487c0.869-1.391,1.836-2.729,2.766-4.022c1.17-1.627,2.282-3.169,3.232-4.813l2.787,1.611
			c-1.03,1.783-2.238,3.464-3.404,5.086c-0.902,1.252-1.837,2.546-2.652,3.852L190.417,423.487z"/>
	</g>
</g>
</svg>
