<?xml version="1.0" encoding="utf-8"?>
<!-- Generator: Adobe Illustrator 23.1.0, SVG Export Plug-In . SVG Version: 6.00 Build 0)  -->
<svg version="1.1" id="Warstwa_1" xmlns="http://www.w3.org/2000/svg" xmlns:xlink="http://www.w3.org/1999/xlink" x="0px" y="0px"
	 viewBox="0 0 214.03 791.72" enable-background="new 0 0 214.03 791.72" xml:space="preserve">
<g>
	<g>
		<path d="M0,5.23L2.95,0c5.9,3.33,11.68,6.94,17.19,10.72l-3.4,4.95C11.38,11.98,5.75,8.47,0,5.23z"/>
	</g>
	<g>
		<path d="M181.56,733.43c-0.4-0.4-0.79-0.83-1.15-1.26c-3.28-3.89-4.9-9.14-4.69-15.18l6,0.21c-0.11,3.16,0.37,7.66,3.28,11.11
			c3.28,3.89,8.18,5.4,13.44,7.05c2.42,0.76,4.93,1.54,7.31,2.58l-2.39,5.5c-2.1-0.91-4.34-1.61-6.72-2.36
			C191.33,739.42,185.83,737.7,181.56,733.43z M188.13,680.16c1.79-8.9,0.96-17.36-2.39-24.47c-1.51-3.2-3.47-6.12-6-8.93l4.46-4.01
			c2.93,3.25,5.2,6.65,6.97,10.38c3.91,8.28,4.9,18.04,2.85,28.21L188.13,680.16z M129.18,611.35l-0.16-0.16
			c-3.65-3.68-6.75-7.96-9.23-12.73l5.33-2.76c2.19,4.23,4.94,8.02,8.17,11.27l0.13,0.13c5.46,5.46,12.35,9.79,18.37,13.31
			l-3.03,5.18C142.41,621.89,135.12,617.29,129.18,611.35z M114.62,558.92c0.2-0.94,0.43-1.89,0.68-2.82
			c3-11.12,9.09-21,14.98-30.56l1.34-2.17l5.11,3.14l-1.34,2.18c-5.93,9.61-11.52,18.69-14.29,28.97c-0.22,0.83-0.43,1.68-0.61,2.52
			L114.62,558.92z M33.68,400.35c-2.87-3.46-5.46-7.08-7.68-10.77c-3.54-5.86-7.91-15.06-8.59-25.58l5.99-0.39
			c0.61,9.31,4.55,17.58,7.74,22.87c2.07,3.43,4.48,6.81,7.16,10.04L33.68,400.35z M63.86,425.69l3.13-5.12
			c1.16,0.71,2.33,1.4,3.5,2.08c9.78,5.63,20.6,9.64,31.06,13.52l-2.06,5.64c-10.72-3.97-21.78-8.07-32-13.95
			C66.28,427.14,65.07,426.43,63.86,425.69z M146.01,489.31c0.86-7.46-0.21-14.39-3.08-20.05c-2.1-4.14-5.32-7.97-9.58-11.37
			l3.75-4.69c4.93,3.94,8.7,8.44,11.18,13.34c3.4,6.71,4.68,14.82,3.69,23.45L146.01,489.31z M39.13,333.48l-3.62-4.79
			c4.62-3.49,9.61-6.49,14.43-9.38c1.35-0.81,2.68-1.61,3.99-2.41c5.07-3.11,9.63-6.16,13.93-9.32l3.55,4.83
			c-4.43,3.26-9.13,6.4-14.35,9.6c-1.32,0.81-2.67,1.62-4.03,2.44C48.35,327.27,43.5,330.18,39.13,333.48z M94.78,281.4
			c7.42-10.02,13.18-21.22,17.12-33.29l5.7,1.86c-4.14,12.68-10.19,24.45-18,35L94.78,281.4z M118.33,211.04
			c0.47-12.05-0.45-24.76-2.73-37.79l5.91-1.03c2.35,13.45,3.3,26.59,2.81,39.06L118.33,211.04z M105.84,136.43
			c-4.15-11.78-9.28-23.55-15.25-34.98l5.32-2.77c6.09,11.68,11.34,23.72,15.58,35.76L105.84,136.43z M70.66,68.89
			c-2.91-4.07-5.93-8.05-8.98-11.82c-4.55-5.62-9.46-11.08-14.61-16.22l-1-0.99l4.22-4.27l1.02,1.02
			C56.6,41.9,61.66,47.51,66.34,53.3c3.13,3.86,6.22,7.94,9.2,12.11L70.66,68.89z"/>
	</g>
	<g>
		<path d="M197.67,788.53c1.62-2.59,3.42-5.08,5.15-7.49c2.18-3.03,4.25-5.9,6.02-8.96l5.19,3c-1.92,3.32-4.17,6.45-6.34,9.47
			c-1.68,2.33-3.42,4.74-4.94,7.17L197.67,788.53z"/>
	</g>
</g>
</svg>
