<?xml version="1.0" encoding="utf-8"?>
<!-- Generator: Adobe Illustrator 16.0.0, SVG Export Plug-In . SVG Version: 6.00 Build 0)  -->
<!DOCTYPE svg PUBLIC "-//W3C//DTD SVG 1.1//EN" "http://www.w3.org/Graphics/SVG/1.1/DTD/svg11.dtd">
<svg version="1.1" id="Warstwa_1" xmlns="http://www.w3.org/2000/svg" xmlns:xlink="http://www.w3.org/1999/xlink" x="0px" y="0px"
	 width="283.46px" height="425.201px" viewBox="0 0 283.46 425.201" enable-background="new 0 0 283.46 425.201"
	 xml:space="preserve">
<g>
	<path fill="#FFAE3D" d="M221.205,425.07c-3.57-4.506-7.1-9.155-10.486-13.818l2.172-1.581c3.365,4.632,6.867,9.25,10.42,13.729
		L221.205,425.07z M200.824,397.009c-2.396-3.606-4.766-7.297-7.051-10.975l-2.257-3.642l2.284-1.415l2.258,3.642
		c2.267,3.655,4.623,7.323,7.001,10.906L200.824,397.009z M182.527,367.585c-3.727-6.405-6.154-11.216-7.871-15.597l2.504-0.981
		c1.667,4.251,4.037,8.945,7.691,15.226L182.527,367.585z M170.513,334.9c-0.295-2.599-0.447-5.236-0.447-7.844
		c0-3.176,0.215-6.355,0.653-9.724l2.665,0.349c-0.426,3.252-0.631,6.32-0.631,9.375c0,2.509,0.143,5.044,0.43,7.539L170.513,334.9z
		 M176.654,300.796l-2.638-0.516c0.653-3.359,0.949-5.832,0.949-8.022c0-3.072-0.577-5.616-1.818-8.009l2.388-1.236
		c1.429,2.751,2.123,5.774,2.123,9.245C177.653,294.628,177.344,297.257,176.654,300.796z M160.757,274.395
		c-5.531-1.895-11.812-2.396-16.662-2.625l0.125-2.684c5.03,0.233,11.557,0.762,17.41,2.764L160.757,274.395z M126.738,271.166
		c-5.451-0.462-11.265-1.577-13.008-6.316c-0.305-0.823-0.457-1.701-0.457-2.615c0-0.488,0.044-0.994,0.13-1.505l2.651,0.452
		c-0.063,0.363-0.094,0.717-0.094,1.053c0,0.6,0.094,1.155,0.291,1.688c0.958,2.611,4.264,4.018,10.709,4.564L126.738,271.166z
		 M125.412,247.891l-1.895-1.903c2.804-2.795,6.011-5.711,9.111-8.537c1.205-1.098,2.414-2.199,3.605-3.297l1.823,1.976
		c-1.196,1.102-2.41,2.203-3.619,3.306C131.356,242.243,128.171,245.141,125.412,247.891z M150.213,223.503l-2.141-1.626
		c2.616-3.436,3.888-6.253,3.888-8.613c0-0.713-0.121-1.397-0.363-2.034c-0.402-1.062-1.074-1.85-2.113-2.481l1.396-2.298
		c1.551,0.945,2.607,2.195,3.23,3.821c0.357,0.94,0.541,1.948,0.541,2.992C154.648,216.233,153.197,219.583,150.213,223.503z
		 M133.072,204.569c-3.18-1.058-5.917-2.468-8.372-4.31c-2.312-1.737-4.322-3.843-5.975-6.253l2.217-1.518
		c1.487,2.172,3.297,4.063,5.375,5.625c2.217,1.667,4.708,2.947,7.606,3.911L133.072,204.569z M112.786,177.286
		c-0.578-3.959-0.86-8.443-0.86-13.72c0-1.191,0.014-2.454,0.045-3.758l2.688,0.059c-0.027,1.285-0.045,2.526-0.045,3.699
		c0,5.143,0.273,9.501,0.833,13.33L112.786,177.286z M115.522,142.658l-2.683-0.171l0.027-0.443
		c0.354-5.491,0.717-11.166,0.896-16.778l2.688,0.085c-0.179,5.652-0.546,11.35-0.9,16.864L115.522,142.658z M113.538,108.123
		c-0.408-5.635-1.209-11.327-2.392-16.922l2.629-0.556c1.209,5.716,2.029,11.529,2.446,17.285L113.538,108.123z M106.537,74.731
		c-1.828-5.25-4.036-10.576-6.558-15.821l2.423-1.164c2.566,5.335,4.811,10.754,6.669,16.098L106.537,74.731z M91.787,43.846
		c-2.88-4.743-6.083-9.545-9.527-14.279l2.172-1.581c3.489,4.793,6.737,9.657,9.653,14.468L91.787,43.846z M71.644,16.053
		c-3.588-4.255-7.453-8.56-11.494-12.797l1.944-1.854C66.17,5.679,70.077,10.024,73.7,14.32L71.644,16.053z"/>
</g>
</svg>
